<svg width="200" viewBox="0 0 27.781 26.811"
    xmlns="http://www.w3.org/2000/svg" class="w-56 h-auto m-auto">
    <path d="m19.003 22.189-17.94-12.375c-1.818-1.254-1.2-3.865 1.067-4.479l19.067-5.175a2.7 2.7 0 0 1 3.616 2.492l-1.13 17.549c-0.134 2.083-2.862 3.242-4.68 1.988z" fill="#ff9f43"></path>
    <path d="m13.313 25.244-10.569-20.669a2.883 2.883 0 0 1 3.007-4.161l19.587 3.023a2.883 2.883 0 0 1 2.127 4.162l-9.023 17.646a2.883 2.883 0 0 1-5.129-1e-3z" fill="#00d2d3"></path>
    <path d="m24.765 3.3483-9.764-1.507-11.988 3.255 4.785 9.361 11.205 7.732a2.888 2.888 0 0 0 0.806 0.383l4.256-8.323z" fill="#001a49"></path>
</svg>