<?xml version="1.0" encoding="UTF-8"?>
<svg xmlns="http://www.w3.org/2000/svg" xmlns:xlink="http://www.w3.org/1999/xlink" width="16px" height="16px" viewBox="0 0 16 16" version="1.1">
<g id="surface1">
<path style=" stroke:none;fill-rule:nonzero;fill:rgb(0%,0%,255%);fill-opacity:1;" d="M 3 14 C 2.734375 14 2.5 13.898438 2.300781 13.699219 C 2.101562 13.5 2 13.265625 2 13 L 2 3 C 2 2.734375 2.101562 2.5 2.300781 2.300781 C 2.5 2.101562 2.734375 2 3 2 L 7.648438 2 L 7.648438 3 L 3 3 L 3 13 L 13 13 L 13 8.351562 L 14 8.351562 L 14 13 C 14 13.265625 13.898438 13.5 13.699219 13.699219 C 13.5 13.898438 13.265625 14 13 14 Z M 6.367188 10.351562 L 5.667969 9.632812 L 12.300781 3 L 8.648438 3 L 8.648438 2 L 14 2 L 14 7.351562 L 13 7.351562 L 13 3.714844 Z M 6.367188 10.351562 "/>
</g>
</svg>
